<mxfile host="app.diagrams.net" modified="2023-01-05T07:35:19.047Z" agent="5.0 (Macintosh; Intel Mac OS X 10_15_7) AppleWebKit/537.36 (KHTML, like Gecko) Chrome/107.0.0.0 Safari/537.36" etag="_cfknyTf0s8CHzhe4tDz" version="20.8.1" type="github">
  <diagram id="9YyZ07Da_IVuiGG4WhZK" name="第 1 页">
    <mxGraphModel dx="718" dy="1131" grid="1" gridSize="10" guides="1" tooltips="1" connect="1" arrows="1" fold="1" page="1" pageScale="1" pageWidth="827" pageHeight="1169" math="0" shadow="0">
      <root>
        <mxCell id="0" />
        <mxCell id="1" parent="0" />
        <mxCell id="CGMIVqNdGJCKhpfUNJ2R-1" value="" style="fontStyle=0;dashed=1;" parent="1" vertex="1">
          <mxGeometry x="936" y="230" width="340" height="510" as="geometry" />
        </mxCell>
        <mxCell id="CGMIVqNdGJCKhpfUNJ2R-2" value="聊天机器人应用-RPA用户登录模块" style="text;html=1;strokeColor=none;fillColor=none;align=left;verticalAlign=middle;whiteSpace=wrap;rounded=0;fontSize=16;" parent="1" vertex="1">
          <mxGeometry x="936" y="200" width="270" height="30" as="geometry" />
        </mxCell>
        <mxCell id="CGMIVqNdGJCKhpfUNJ2R-3" value="" style="fontStyle=0;dashed=1;" parent="1" vertex="1">
          <mxGeometry x="1306" y="310" width="240" height="320" as="geometry" />
        </mxCell>
        <mxCell id="CGMIVqNdGJCKhpfUNJ2R-4" value="RPA应用-开放鉴权接口" style="text;html=1;strokeColor=none;fillColor=none;align=left;verticalAlign=middle;whiteSpace=wrap;rounded=0;fontSize=16;" parent="1" vertex="1">
          <mxGeometry x="1306" y="280" width="220" height="30" as="geometry" />
        </mxCell>
        <mxCell id="CGMIVqNdGJCKhpfUNJ2R-5" style="edgeStyle=orthogonalEdgeStyle;rounded=0;orthogonalLoop=1;jettySize=auto;html=1;fontFamily=Helvetica;fontSize=12;fontColor=default;entryX=0.5;entryY=0;entryDx=0;entryDy=0;" parent="1" source="CGMIVqNdGJCKhpfUNJ2R-7" target="CGMIVqNdGJCKhpfUNJ2R-10" edge="1">
          <mxGeometry relative="1" as="geometry">
            <mxPoint x="1046" y="330" as="targetPoint" />
          </mxGeometry>
        </mxCell>
        <mxCell id="CGMIVqNdGJCKhpfUNJ2R-6" value="登录" style="edgeLabel;html=1;align=center;verticalAlign=middle;resizable=0;points=[];fontSize=12;fontFamily=Helvetica;fontColor=default;" parent="CGMIVqNdGJCKhpfUNJ2R-5" vertex="1" connectable="0">
          <mxGeometry x="0.3333" y="-2" relative="1" as="geometry">
            <mxPoint x="2" y="-13" as="offset" />
          </mxGeometry>
        </mxCell>
        <mxCell id="CGMIVqNdGJCKhpfUNJ2R-7" value="RPA用户登录页面" style="fontStyle=0;fontSize=12;" parent="1" vertex="1">
          <mxGeometry x="986" y="240" width="120" height="40" as="geometry" />
        </mxCell>
        <mxCell id="CGMIVqNdGJCKhpfUNJ2R-8" style="edgeStyle=orthogonalEdgeStyle;rounded=0;orthogonalLoop=1;jettySize=auto;html=1;entryX=0;entryY=0.5;entryDx=0;entryDy=0;fontFamily=Helvetica;fontSize=12;fontColor=default;" parent="1" source="CGMIVqNdGJCKhpfUNJ2R-10" target="CGMIVqNdGJCKhpfUNJ2R-12" edge="1">
          <mxGeometry relative="1" as="geometry" />
        </mxCell>
        <mxCell id="CGMIVqNdGJCKhpfUNJ2R-9" value="携带鉴权token，发起请求" style="edgeLabel;html=1;align=center;verticalAlign=middle;resizable=0;points=[];fontSize=12;fontFamily=Helvetica;fontColor=default;" parent="CGMIVqNdGJCKhpfUNJ2R-8" vertex="1" connectable="0">
          <mxGeometry x="-0.0833" y="-1" relative="1" as="geometry">
            <mxPoint as="offset" />
          </mxGeometry>
        </mxCell>
        <mxCell id="CGMIVqNdGJCKhpfUNJ2R-10" value="请求RPA鉴权接口" style="fontStyle=0;fontSize=12;" parent="1" vertex="1">
          <mxGeometry x="986" y="330" width="120" height="40" as="geometry" />
        </mxCell>
        <mxCell id="CGMIVqNdGJCKhpfUNJ2R-11" style="edgeStyle=orthogonalEdgeStyle;rounded=0;orthogonalLoop=1;jettySize=auto;html=1;entryX=0.5;entryY=0;entryDx=0;entryDy=0;fontFamily=Helvetica;fontSize=12;fontColor=default;" parent="1" source="CGMIVqNdGJCKhpfUNJ2R-12" target="CGMIVqNdGJCKhpfUNJ2R-22" edge="1">
          <mxGeometry relative="1" as="geometry" />
        </mxCell>
        <mxCell id="CGMIVqNdGJCKhpfUNJ2R-12" value="RPA用户登录开放接口" style="fontStyle=0;fontSize=12;" parent="1" vertex="1">
          <mxGeometry x="1416" y="330" width="120" height="40" as="geometry" />
        </mxCell>
        <mxCell id="CGMIVqNdGJCKhpfUNJ2R-14" style="edgeStyle=orthogonalEdgeStyle;rounded=0;orthogonalLoop=1;jettySize=auto;html=1;fontFamily=Helvetica;fontSize=12;fontColor=default;exitX=0;exitY=0.5;exitDx=0;exitDy=0;entryX=0.5;entryY=0;entryDx=0;entryDy=0;" parent="1" target="CGMIVqNdGJCKhpfUNJ2R-30" edge="1">
          <mxGeometry relative="1" as="geometry">
            <mxPoint x="1046" y="420" as="targetPoint" />
            <Array as="points">
              <mxPoint x="1046" y="440" />
            </Array>
            <mxPoint x="1316" y="440" as="sourcePoint" />
          </mxGeometry>
        </mxCell>
        <mxCell id="CGMIVqNdGJCKhpfUNJ2R-17" value="登录失败&#xa;提示失败信息" style="fontStyle=0;fontSize=12;" parent="1" vertex="1">
          <mxGeometry x="1137" y="650" width="120" height="40" as="geometry" />
        </mxCell>
        <mxCell id="CGMIVqNdGJCKhpfUNJ2R-18" style="edgeStyle=orthogonalEdgeStyle;rounded=0;orthogonalLoop=1;jettySize=auto;html=1;fontFamily=Helvetica;fontSize=12;fontColor=default;entryX=1;entryY=0.5;entryDx=0;entryDy=0;" parent="1" source="CGMIVqNdGJCKhpfUNJ2R-22" target="7ssed5X1ariI-GvpH_s3-1" edge="1">
          <mxGeometry relative="1" as="geometry">
            <Array as="points">
              <mxPoint x="1416" y="440" />
            </Array>
            <mxPoint x="1396" y="440" as="targetPoint" />
          </mxGeometry>
        </mxCell>
        <mxCell id="CGMIVqNdGJCKhpfUNJ2R-19" value="成功" style="edgeLabel;html=1;align=center;verticalAlign=middle;resizable=0;points=[];fontSize=12;fontFamily=Helvetica;fontColor=default;" parent="CGMIVqNdGJCKhpfUNJ2R-18" vertex="1" connectable="0">
          <mxGeometry x="0.05" relative="1" as="geometry">
            <mxPoint y="-11" as="offset" />
          </mxGeometry>
        </mxCell>
        <mxCell id="CGMIVqNdGJCKhpfUNJ2R-20" style="edgeStyle=orthogonalEdgeStyle;rounded=0;orthogonalLoop=1;jettySize=auto;html=1;entryX=1;entryY=0.5;entryDx=0;entryDy=0;fontFamily=Helvetica;fontSize=12;fontColor=default;exitX=0.5;exitY=1;exitDx=0;exitDy=0;" parent="1" source="CGMIVqNdGJCKhpfUNJ2R-22" target="CGMIVqNdGJCKhpfUNJ2R-17" edge="1">
          <mxGeometry relative="1" as="geometry">
            <Array as="points">
              <mxPoint x="1476" y="670" />
            </Array>
          </mxGeometry>
        </mxCell>
        <mxCell id="CGMIVqNdGJCKhpfUNJ2R-21" value="失败返回" style="edgeLabel;html=1;align=center;verticalAlign=middle;resizable=0;points=[];fontSize=12;fontFamily=Helvetica;fontColor=default;" parent="CGMIVqNdGJCKhpfUNJ2R-20" vertex="1" connectable="0">
          <mxGeometry x="0.604" y="3" relative="1" as="geometry">
            <mxPoint x="2" y="-3" as="offset" />
          </mxGeometry>
        </mxCell>
        <mxCell id="CGMIVqNdGJCKhpfUNJ2R-22" value="验证token&lt;br&gt;有效性" style="rhombus;whiteSpace=wrap;html=1;fontFamily=Helvetica;fontSize=12;fontColor=default;" parent="1" vertex="1">
          <mxGeometry x="1436" y="400" width="80" height="80" as="geometry" />
        </mxCell>
        <mxCell id="CGMIVqNdGJCKhpfUNJ2R-23" style="edgeStyle=orthogonalEdgeStyle;rounded=0;orthogonalLoop=1;jettySize=auto;html=1;fontFamily=Helvetica;fontSize=12;fontColor=default;" parent="1" source="CGMIVqNdGJCKhpfUNJ2R-24" target="CGMIVqNdGJCKhpfUNJ2R-31" edge="1">
          <mxGeometry relative="1" as="geometry" />
        </mxCell>
        <mxCell id="CGMIVqNdGJCKhpfUNJ2R-24" value="保存用户信息" style="fontStyle=0;fontSize=12;" parent="1" vertex="1">
          <mxGeometry x="1137" y="590" width="120" height="40" as="geometry" />
        </mxCell>
        <mxCell id="CGMIVqNdGJCKhpfUNJ2R-25" style="edgeStyle=orthogonalEdgeStyle;rounded=0;orthogonalLoop=1;jettySize=auto;html=1;entryX=0.5;entryY=0;entryDx=0;entryDy=0;fontFamily=Helvetica;fontSize=12;fontColor=default;exitX=1;exitY=0.5;exitDx=0;exitDy=0;" parent="1" source="CGMIVqNdGJCKhpfUNJ2R-30" target="CGMIVqNdGJCKhpfUNJ2R-24" edge="1">
          <mxGeometry relative="1" as="geometry">
            <mxPoint x="1046" y="420" as="sourcePoint" />
          </mxGeometry>
        </mxCell>
        <mxCell id="CGMIVqNdGJCKhpfUNJ2R-26" value="否" style="edgeLabel;html=1;align=center;verticalAlign=middle;resizable=0;points=[];fontSize=12;fontFamily=Helvetica;fontColor=default;" parent="CGMIVqNdGJCKhpfUNJ2R-25" vertex="1" connectable="0">
          <mxGeometry x="-0.6133" relative="1" as="geometry">
            <mxPoint x="72" y="30" as="offset" />
          </mxGeometry>
        </mxCell>
        <mxCell id="CGMIVqNdGJCKhpfUNJ2R-27" style="edgeStyle=orthogonalEdgeStyle;rounded=0;orthogonalLoop=1;jettySize=auto;html=1;fontFamily=Helvetica;fontSize=12;fontColor=default;entryX=0.5;entryY=0;entryDx=0;entryDy=0;exitX=0.5;exitY=1;exitDx=0;exitDy=0;" parent="1" source="CGMIVqNdGJCKhpfUNJ2R-30" target="CGMIVqNdGJCKhpfUNJ2R-31" edge="1">
          <mxGeometry relative="1" as="geometry">
            <Array as="points">
              <mxPoint x="1047" y="510" />
              <mxPoint x="1046" y="510" />
              <mxPoint x="1046" y="670" />
              <mxPoint x="1047" y="670" />
            </Array>
          </mxGeometry>
        </mxCell>
        <mxCell id="CGMIVqNdGJCKhpfUNJ2R-28" value="是" style="edgeLabel;html=1;align=center;verticalAlign=middle;resizable=0;points=[];fontSize=12;fontFamily=Helvetica;fontColor=default;" parent="CGMIVqNdGJCKhpfUNJ2R-27" vertex="1" connectable="0">
          <mxGeometry x="-0.7636" relative="1" as="geometry">
            <mxPoint as="offset" />
          </mxGeometry>
        </mxCell>
        <mxCell id="CGMIVqNdGJCKhpfUNJ2R-29" value="是" style="edgeLabel;html=1;align=center;verticalAlign=middle;resizable=0;points=[];fontSize=12;fontFamily=Helvetica;fontColor=default;" parent="CGMIVqNdGJCKhpfUNJ2R-27" vertex="1" connectable="0">
          <mxGeometry x="0.012" y="2" relative="1" as="geometry">
            <mxPoint as="offset" />
          </mxGeometry>
        </mxCell>
        <mxCell id="CGMIVqNdGJCKhpfUNJ2R-30" value="验证用户是&lt;br&gt;否已注册" style="rhombus;whiteSpace=wrap;html=1;fontFamily=Helvetica;fontSize=12;fontColor=default;" parent="1" vertex="1">
          <mxGeometry x="1006" y="470" width="80" height="80" as="geometry" />
        </mxCell>
        <mxCell id="CGMIVqNdGJCKhpfUNJ2R-31" value="登录成功" style="fontStyle=0;fontSize=12;" parent="1" vertex="1">
          <mxGeometry x="987" y="650" width="120" height="40" as="geometry" />
        </mxCell>
        <mxCell id="7ssed5X1ariI-GvpH_s3-1" value="根据用户token&#xa;获取用户信息" style="fontStyle=0;fontSize=12;" vertex="1" parent="1">
          <mxGeometry x="1310" y="420" width="100" height="40" as="geometry" />
        </mxCell>
      </root>
    </mxGraphModel>
  </diagram>
</mxfile>
